<!-- icon666.com - MILLIONS vector ICONS FREE --><svg id="Layer_1" enable-background="new 0 0 468 468" viewBox="0 0 468 468" xmlns="http://www.w3.org/2000/svg"><g><g id="XMLID_564_"><path id="XMLID_565_" d="m378 452h-288c-11.046 0-20-8.954-20-20v-227.717c0-11.046 8.954-20 20-20h288c11.046 0 20 8.954 20 20v227.717c0 11.046-8.954 20-20 20z" fill="#fff"></path><path id="XMLID_566_" d="m150 184.284h-60c-11.046 0-20 8.954-20 20v227.716c0 11.046 8.954 20 20 20h288c11.046 0 20-8.954 20-20v-60h-60.284c-103.673 0-187.716-84.043-187.716-187.716z" fill="#e6e7e8" style="fill: rgb(0, 128, 255);"></path><path id="XMLID_567_" d="m378 168.284h-1.429v-32.094c0-75.095-63.957-136.19-142.571-136.19s-142.571 61.095-142.571 136.19v32.094h-1.429c-19.851 0-36 16.149-36 36v227.716c0 19.851 16.149 36 36 36h288c19.851 0 36-16.149 36-36v-227.716c0-19.851-16.149-36-36-36zm-254.571-32.094c0-57.451 49.602-104.19 110.571-104.19s110.571 46.739 110.571 104.19v32.094h-221.142zm258.571 295.81c0 2.206-1.794 4-4 4h-288c-2.206 0-4-1.794-4-4v-227.716c0-2.206 1.794-4 4-4h288c2.206 0 4 1.794 4 4z" fill="#3e4d6c"></path></g><g fill="#0795fe"><g id="XMLID_578_"><path id="XMLID_581_" d="m137.91 305.5c-18.5 0-32.992-19.107-32.992-43.5s14.492-43.5 32.992-43.5 32.992 19.107 32.992 43.5-14.492 43.5-32.992 43.5zm0-64c-3.978 0-9.992 8.176-9.992 20.5s6.015 20.5 9.992 20.5 9.992-8.176 9.992-20.5-6.014-20.5-9.992-20.5z" fill="#000000"></path><path id="XMLID_584_" d="m272.761 305.5c-18.5 0-32.991-19.107-32.991-43.5s14.491-43.5 32.991-43.5 32.992 19.107 32.992 43.5-14.492 43.5-32.992 43.5zm0-64c-3.978 0-9.991 8.176-9.991 20.5s6.014 20.5 9.991 20.5 9.992-8.176 9.992-20.5-6.015-20.5-9.992-20.5z" fill="#000000"></path><path id="XMLID_587_" d="m219.952 278.205v-43.843c0-8.383-9.077-14.023-16.593-10.311l-14.512 7.167c-5.694 2.813-8.03 9.709-5.218 15.404 2.477 5.015 8.12 7.425 13.322 6.008v25.527c-6.175.202-11.121 5.258-11.121 11.481 0 6.351 5.148 11.5 11.5 11.5h21.399c6.352 0 11.5-5.149 11.5-11.5.001-5.938-4.5-10.823-10.277-11.433z" fill="#000000"></path><path id="XMLID_588_" d="m354.804 278.205v-43.843c0-8.383-9.077-14.023-16.593-10.311l-14.512 7.167c-5.694 2.813-8.03 9.709-5.218 15.404 2.477 5.015 8.118 7.425 13.322 6.008v25.527c-6.175.202-11.121 5.258-11.121 11.481 0 6.351 5.148 11.5 11.5 11.5h21.399c6.352 0 11.5-5.149 11.5-11.5.001-5.938-4.5-10.823-10.277-11.433z" fill="#000000"></path></g><g id="XMLID_591_"><path id="XMLID_592_" d="m330.09 415.5c-18.5 0-32.992-19.107-32.992-43.5s14.492-43.5 32.992-43.5 32.992 19.107 32.992 43.5-14.492 43.5-32.992 43.5zm0-64c-3.978 0-9.992 8.176-9.992 20.5s6.015 20.5 9.992 20.5 9.992-8.176 9.992-20.5-6.015-20.5-9.992-20.5z" fill="#000000"></path><path id="XMLID_596_" d="m195.239 415.5c-18.5 0-32.992-19.107-32.992-43.5s14.492-43.5 32.992-43.5 32.991 19.107 32.991 43.5-14.491 43.5-32.991 43.5zm0-64c-3.978 0-9.992 8.176-9.992 20.5s6.015 20.5 9.992 20.5 9.991-8.176 9.991-20.5-6.013-20.5-9.991-20.5z" fill="#000000"></path><path id="XMLID_599_" d="m142.43 388.205v-43.843c0-8.384-9.076-14.021-16.593-10.311l-14.512 7.167c-5.694 2.813-8.03 9.709-5.218 15.404 2.477 5.015 8.119 7.424 13.322 6.008v25.527c-6.175.202-11.121 5.258-11.121 11.481 0 6.351 5.148 11.5 11.5 11.5h21.399c6.352 0 11.5-5.149 11.5-11.5.001-5.938-4.5-10.823-10.277-11.433z" fill="#000000"></path><path id="XMLID_600_" d="m277.281 388.205v-43.843c0-8.384-9.076-14.021-16.593-10.311l-14.512 7.167c-5.694 2.813-8.03 9.709-5.218 15.404 2.477 5.015 8.118 7.424 13.322 6.008v25.527c-6.175.202-11.121 5.258-11.121 11.481 0 6.351 5.148 11.5 11.5 11.5h21.399c6.352 0 11.5-5.149 11.5-11.5.002-5.938-4.5-10.823-10.277-11.433z" fill="#000000"></path></g></g></g></svg>